<svg id="Layer_1" data-name="Layer 1" xmlns="http://www.w3.org/2000/svg" viewBox="0 0 4.28 4.89"><defs><style>.cls-1{fill:#a0a0a0;}</style></defs><title>bell</title><path class="cls-1" d="M219.94,263a.62.62,0,0,0,.62-.61h-1.23A.62.62,0,0,0,219.94,263Zm2.06-1.43a1.8,1.8,0,0,1-.53-1.47,1.51,1.51,0,0,0-1.22-1.49v-.2a.31.31,0,0,0-.61,0v.2a1.51,1.51,0,0,0-1.22,1.49,1.8,1.8,0,0,1-.53,1.47.25.25,0,0,0-.08.21.3.3,0,0,0,.3.3h3.67a.3.3,0,0,0,.3-.3A.28.28,0,0,0,222,261.53Z" transform="translate(-217.81 -258.07)"/></svg>