<?xml version="1.0" encoding="utf-8"?>
<!-- Generator: Adobe Illustrator 23.0.2, SVG Export Plug-In . SVG Version: 6.00 Build 0)  -->
<svg version="1.1" id="Layer_1" xmlns="http://www.w3.org/2000/svg" xmlns:xlink="http://www.w3.org/1999/xlink" x="0px" y="0px"
	 viewBox="0 0 217 44" style="enable-background:new 0 0 217 44;" xml:space="preserve">
<style type="text/css">
	.st0{clip-path:url(#SVGID_2_);fill:#1B4DAC;}
	.st1{fill:#323232;}
</style>
<g>
	<defs>
		<circle id="SVGID_1_" cx="211" cy="30" r="6"/>
	</defs>
	<clipPath id="SVGID_2_">
		<use xlink:href="#SVGID_1_"  style="overflow:visible;"/>
	</clipPath>
	<rect x="200" y="19" class="st0" width="22" height="22"/>
</g>
<g>
	<path class="st1" d="M12.31,2.09h2.34L27.25,35h-2.46l-4.45-11.8H6.62L2.14,35h-2.43L12.31,2.09z M19.49,21L13.48,4.82L7.47,21
		H19.49z"/>
	<path class="st1" d="M33.07,13.57c2.23-2.39,5.08-3.58,8.55-3.58c1.1,0,2.15,0.16,3.14,0.47s1.8,0.66,2.42,1.04
		c0.62,0.38,1.21,0.86,1.77,1.42c0.56,0.57,0.94,0.99,1.14,1.29c0.2,0.29,0.4,0.6,0.6,0.92v-4.52h2.36v33.18h-2.36V30.34
		c-0.18,0.37-0.43,0.75-0.73,1.15c-0.31,0.4-0.74,0.85-1.3,1.37c-0.56,0.51-1.17,0.96-1.82,1.35c-0.66,0.39-1.46,0.72-2.42,1
		c-0.96,0.28-1.96,0.41-3.02,0.41c-3.43,0-6.23-1.21-8.4-3.62c-2.17-2.42-3.26-5.51-3.26-9.27C29.73,19,30.84,15.95,33.07,13.57z
		 M34.8,30.39c1.76,2,3.97,3.01,6.63,3.01c1.27,0,2.47-0.24,3.6-0.72c1.13-0.48,2.12-1.17,2.97-2.05c0.85-0.89,1.52-2.01,2.02-3.37
		c0.5-1.36,0.75-2.87,0.75-4.52c0-2.95-0.85-5.44-2.55-7.47s-3.93-3.04-6.7-3.04c-2.66,0-4.89,0.97-6.68,2.9s-2.69,4.47-2.69,7.61
		C32.16,25.83,33.04,28.38,34.8,30.39z"/>
	<path class="st1" d="M59.84,10.61h2.36v15.65c0,2.2,0.62,3.95,1.86,5.24s2.83,1.94,4.77,1.94c2.14,0,3.9-0.73,5.27-2.2
		c1.37-1.47,2.05-3.38,2.05-5.74V10.61h2.34V35h-2.34v-3.86c-0.63,1.27-1.64,2.33-3.03,3.19c-1.39,0.86-2.92,1.29-4.59,1.29
		c-2.56,0-4.64-0.83-6.27-2.49s-2.43-3.89-2.43-6.69V10.61z"/>
	<path class="st1" d="M86.25,21.79c1.76-1.51,3.99-2.26,6.7-2.26c1.53,0,2.93,0.27,4.2,0.8c1.27,0.54,2.21,1.15,2.82,1.84v-3.72
		c0-2-0.6-3.55-1.81-4.65s-2.83-1.64-4.87-1.64c-2.56,0-5.06,0.75-7.53,2.25l-0.99-1.84c2.66-1.73,5.55-2.59,8.65-2.59
		c2.94,0,5.15,0.78,6.64,2.33c1.49,1.55,2.24,3.65,2.24,6.28V35h-1.93l-0.41-2.29c-1.68,1.94-4.02,2.91-7.02,2.91
		c-2.74,0-4.98-0.78-6.72-2.33s-2.62-3.48-2.62-5.77C83.61,25.21,84.49,23.3,86.25,21.79z M87.96,31.73
		c1.31,1.14,3.03,1.71,5.15,1.71c2.05,0,3.73-0.56,5.04-1.69c1.31-1.12,1.96-2.54,1.96-4.23c0-1.74-0.64-3.15-1.93-4.22
		s-2.99-1.61-5.12-1.61c-2.11,0-3.82,0.55-5.12,1.66S86,25.85,86,27.52S86.65,30.59,87.96,31.73z"/>
</g>
<g>
	<path class="st1" d="M108.28,2.09h9.68c5.32,0,9.55,1.46,12.67,4.38c3.12,2.92,4.68,6.95,4.68,12.07c0,5.13-1.56,9.15-4.68,12.07
		c-3.12,2.92-7.34,4.38-12.67,4.38h-9.68V2.09z M117.97,28.05c2.77,0,4.96-0.82,6.56-2.44c1.61-1.63,2.41-3.98,2.41-7.06
		c0-3.07-0.8-5.42-2.41-7.04s-3.79-2.43-6.56-2.43h-1.65v18.98H117.97z"/>
	<path class="st1" d="M139.54,1.53c0.83-0.8,1.87-1.2,3.12-1.2s2.31,0.4,3.16,1.2c0.85,0.8,1.27,1.83,1.27,3.06
		c0,1.21-0.42,2.21-1.27,3.02c-0.85,0.8-1.9,1.2-3.16,1.2s-2.29-0.4-3.12-1.2c-0.83-0.8-1.24-1.81-1.24-3.02
		C138.3,3.35,138.71,2.33,139.54,1.53z M138.81,10.33h7.85V35h-7.85V10.33z"/>
	<path class="st1" d="M151.15,10.33h7.67v2.52c0.55-0.84,1.37-1.58,2.44-2.2c1.08-0.63,2.33-0.94,3.75-0.94
		c1.07,0,2.03,0.13,2.89,0.39c0.86,0.26,1.58,0.6,2.16,1.02s1.09,0.95,1.51,1.6s0.76,1.28,1,1.92c0.24,0.63,0.43,1.37,0.57,2.2
		s0.24,1.58,0.28,2.25c0.04,0.67,0.06,1.41,0.06,2.24V35h-7.85V20.29c0-1.12-0.3-1.98-0.9-2.6c-0.6-0.62-1.38-0.93-2.34-0.93
		c-1.06,0-1.89,0.33-2.49,1c-0.6,0.67-0.91,1.51-0.91,2.54V35h-7.85V10.33z"/>
	<path class="st1" d="M178.08,16.16c1-1.97,2.43-3.54,4.29-4.7c1.86-1.16,3.97-1.74,6.32-1.74c3.9,0,6.9,1.18,9,3.55
		c2.1,2.36,3.14,5.66,3.14,9.9c0,0.64-0.02,1.16-0.05,1.54h-16.18c0.09,1.13,0.63,2.1,1.62,2.9c0.99,0.8,2.19,1.21,3.61,1.21
		c1.29,0,2.38-0.29,3.27-0.88c0.89-0.59,1.53-1.17,1.89-1.76l5.16,3.99c-0.21,0.44-0.57,0.94-1.07,1.48c-0.5,0.54-1.16,1.13-2,1.77
		c-0.83,0.63-1.91,1.16-3.21,1.58c-1.31,0.42-2.71,0.63-4.21,0.63c-2.65,0-4.97-0.57-6.98-1.71s-3.53-2.68-4.57-4.62
		c-1.04-1.94-1.56-4.13-1.56-6.56C176.58,20.32,177.08,18.13,178.08,16.16z M192.85,19.72c-0.05-1.03-0.43-1.89-1.15-2.59
		c-0.72-0.7-1.67-1.06-2.85-1.06c-1.21,0-2.15,0.36-2.82,1.09s-1.06,1.58-1.17,2.56H192.85z"/>
</g>
</svg>
